<svg version="1.2" xmlns="http://www.w3.org/2000/svg" viewBox="0 0 1080 1920" width="1080" height="1920">
	<title>New Project</title>
	<style>
		.s0 { fill: #000000 } 
	</style>
	<path id="&lt;Compound Path&gt;" class="s0" d="m197.2 502.3c5.2 10.6 8.6 17.8 12.8 26.4 5.3-5.3 10.5-8.5 12.8-13.2 9.3-18.3 26.9-27.6 42-39.5 17.2-13.5 37.6-19 59.4-19 13 0 26 0.3 39 0.5 7.2 0 13.1 3.1 15.5 9.7 3 8 13.4 13.5 8.3 24.8-0.8 1.8 4.9 6.6 7.8 10.3 9.5-5.9 17.4-12.8 26.5-16 8.4-2.8 18.2-1.7 28.7-2.4 2.6 4.1 6 9.5 9.4 14.9 1.5-0.1 3.5 0.3 4.7-0.5 11.3-7.7 22.6-15.7 34.5-24.1-3-19.2-1.7-39.5-1.8-59.7-0.1-20.4-1.5-41.1 1-61.2 2-16.2 1.7-32.4 4-48.6 2.4-16.4 0.1-33.4 1.4-50 1.4-18.3 3.7-36.7 7.2-54.7 2.3-11.7 6.6-23.2 17-31 4.4-3.3 8.3-7.3 12.6-11.2 9.5 4.2 18.7 7.9 27.6 12.3 9.9 4.8 15 14.1 17.8 23.9 2.7 9.6 3.9 19.9 4 29.9 0.1 13.8-1.6 27.7-2.4 41.5-1 16.6 1.6 33.5-5 49.5-1 2.4-0.6 5.5-0.6 8.3-0.2 52-0.2 104-0.6 156-0.1 9.5 3.9 15.9 11.3 21.1 11.5-11.9 22.8-23.5 33-34.1 14.7-1.8 27.4-3.6 40.2-4.9 4-0.4 7 2.2 7.9 6.2 5.5 24.4 7.3 28.8 17.5 42-1.1 2.1-2.3 4.5-3.6 6.9-1.2 2.2-2.6 4.3-4 6.6 2.3 0.5 4.6 1.6 5.4 0.9 4.2-3.5 9.5-6.8 11.8-11.5 8.2-16.5 23.5-23.2 38.9-29.5 8.5-3.4 17.8-4.7 26.9-6.4 7.8-1.5 15.2 0.3 19 8 5.9 12.2 16.3 19.8 26 29 10.2-13.2 19.6-25.8 29.5-38 7.9-9.8 18.4-15.4 31.2-16 9.2-0.4 18.7-1.1 27.8 0.3 8.9 1.4 17.7 2.9 26.9 2.9 4.3 0 9.7 1.1 12.8 3.8 7.5 6.3 14.1 0.9 20.1 0 19.6 6 27 25.1 42 35.5 5.5 15.4 17.4 28.3 18.5 45.9-3.5 9.2-7 18.7-10.9 28.1-1.4 3.3-3.2 6.7-5.6 9.4-19.4 21.3-40.7 40.4-64.3 57-6.8 4.8-14.6 7.8-23.5 7.4-10.1-0.4-20.3-0.1-30.9 2.8q7.4 2.2 14.9 4.4c-14 3.4-27.2 4.2-40.9-1.2-14.4-5.6-29.9-8.4-45.6-12.6-3 4.6-6.2 8.1-7.8 12.2-5.6 15.1-15.7 27.1-27.3 37.2-11.9 10.3-26.5 16.1-42.6 18.9-9 1.6-17.8 4.3-27.2 4.6-6.4 0.2-12.8 1.3-19 3-8.3 2.2-16.2 1.2-24.6 0-26.2-3.7-49.4-14.3-72.1-30.4-0.7 4.9-1.7 8.4-1.5 11.8 1.1 24.9-3.2 50.1 4.6 74.6 1.1 3.4 0.2 7.4 0.4 11.1 0.6 12.9-1.4 26.8 2.7 38.5 4.9 14.1-5.2 25.1-2.9 38.1 1.6 9-0.8 18.6 3.5 27.3 0.8 1.7 1.5 3.6 1.4 5.4-2 25.1 7 49.4 6.1 74.5-0.3 9.2-0.7 18.5 3.6 27.3 1.2 2.4 1.4 5.5 1.2 8.2-2 25.1 2.2 49.9 6.3 74.4 3.7 22 2.1 44.4 5.8 66 3.4 20.3 3.8 40.4 4.7 60.7 0.2 5.4 1.6 10.9 2.4 16.3 0.8 5.5 2.5 11 2.3 16.4-0.8 24.3 4.8 47.5 9.6 71 4.1 19.8 5 40.2 6.8 60.4 1 11.9-0.6 23.9 4.3 35.6 2.1 4.8 0.9 11 1.1 16.5 0.3 11.1-1.2 22.4 4.5 32.8-0.6 17.7 4.2 34.7 6.6 52 2.4 17.3 5.7 34.5 8.9 51.6 2.5 13.6 4 27.3 6.7 40.9 7.1 36.1 12.1 72.6 25.1 107.4 1.3 3.4 2.6 7 2.8 10.6 0.9 12.9-2.7 23.8-14.9 30.4-7.3 3.9-14.4 8.3-22.5 13.1-3.4-3.9-6.9-8-10.3-12.1-4.2 5.4-9.1 8.7-16.4 8-4.9-0.5-9.1-2.3-11.6-6.5-2.8-4.8-6-9.7-7.2-15-9.2-41.4-23.9-81.4-29.5-123.6-0.9-7.3-2.7-14.6-5.2-21.5-3.4-9.8-4.4-19.7-5.1-29.9-0.7-11.9-2-24.1-5.5-35.4-5.7-18.7-4.2-38.3-8.9-57.3-4.8-19.5-4.8-40.2-7-60.3-0.7-6.4-1.7-12.8-2.8-19.2-0.4-2.7-2.1-5.4-2-8 1.6-24.2-3.8-47.8-6.1-71.6-2-20.2-5.4-40.1-8.2-60.2-0.7-5.4-2-10.9-2.2-16.4-0.7-15.6 0.3-31.3-4.8-46.7-2.3-6.7-0.6-14.8-0.9-22.2-0.5-11.9 1.2-24-4.1-35.6-1.8-4-0.9-9.2-1.1-13.8-0.6-14.8 0.7-29.5-4.4-44-2.4-6.7-0.8-14.7-1-22.2-0.6-14.7 1.3-29.5-4.4-44-1.9-4.9-0.7-11-0.9-16.5-0.6-12.9 0.9-25.8-4.2-38.5-2.3-5.7-1-12.8-1.2-19.3-0.6-16.6-0.3-33-4-49.6-3.4-15.1-1.1-31.5-1.4-47.2-0.2-11.1 0.8-22.1-3.6-33-2.3-5.7-1.4-12.8-1.4-19.3-0.1-16.6 0.1-33.3 0.1-49.2-9.1-8.7-19.6-7-27.3-4.1-17.8 6.5-32.6-1-48-6.3-8.7-2.9-16.7-7.6-24.4-11.3-13 7.2-25.1 13.8-37.2 20.4-5.9 3.2-11.7 3.9-18.5 2.4-5-1.1-2.3 5.4-4.2 7.9-49.8 4.5-71.5 1.1-127-52.5-7.1 3.2-11 9.2-14.5 15.9-3.1 5.7-6.1 11.5-9.9 16.7-4.6 6.2-10.8 9.4-18.9 10-40.8 2.7-70.9-16.9-96.2-46.1-3.5-4.1-5.5-9.7-7.6-14.8-5-12-13.3-66.8-11.7-79 0.9-7.1 3.5-12.4 8.5-16.8 1.4-1.2 3.2-3.3 4.5-3.1 15.1 1.9 18.6-8.3 21.4-19.7 1.1-4.5 3.4-8.7 4.5-13.1 5.8-22.9 23.1-35.6 42.3-45.2 7.4-3.7 18.3-2.4 27-0.7 9.8 1.9 19 6.8 27.6 10.2zm90 35.6c4.8 8.7 8.7 15.9 12.2 22.1-7.9 24.7-21.8 47-11.9 74.1 12.6 6.4 25.9 12.5 41.1 13 8.2 0.3 13.9 3.7 17.5 11.3 1 2.1 3.9 3.2 5.5 4.5 6.7-2.5 10.9-6.5 8.7-12.8-5.6-15.6-5.1-30.7 0.6-46 1.2-3.4 1.3-7.3 1.2-11-0.7-17.2 5-32.7 12.4-47.7 4.1-8.3 6.2-17 8.1-26.4-4.9-3.5-8.9-8.5-13.8-9.7-10.5-2.6-21.8-5.4-32.3-4.1-14.4 1.7-29 5.7-41.3 14.6-1.4 1-2.5 2.6-3.7 3.9-1.4 4.5-2.7 8.9-4.3 14.2zm479.8-4.3c-15.3-4.4-25.4-0.2-34.2 9.8-6.7 7.5-14.2 14.4-21.6 21.3-6.9 6.5-11.1 14.6-13.4 23.6-2.4 9.2 1.5 17 10 20.2 14.7 5.4 29.8 9 46.8 5.2 4.1-5.1 8.9-11.1 8.6-18.7-0.5-12.7 5.5-23.1 10.5-34.1-2.1-8.7-4.3-17.5-6.7-27.3zm92.9 46.6c8.4 0.7 15.6 0.8 22.6 2 19.3 3.2 33.7-6.6 46.8-18.3 14.3-12.9 8.4-36.4-10.2-41.8-7.8-2.2-15.8-3.5-23.9-5.3-21 15.5-33.9 35.2-35.3 63.4zm-708.6-42.9c-9.3 12.8-15.4 27.1-21.3 41.4-2.5 5.8-1.9 12.7 2.4 18.4 2.2 2.9 5.5 5.7 6.1 9 2.5 14.1 12.6 16.4 25.2 17.6 4.7-7.8 11.4-15.1 13.5-23.4 3-12.2 4-25.4 3.2-37.9-0.6-8.5-2.8-18.1-10.6-24.7-3.1 1.9-6.2 3.8-9.3 5.6-2.7-1.7-5.4-3.5-9.2-6zm349.6 11.2c-25.6 18.5-35.4 41.5-31.6 70 1.5 11.1 8 20.4 17.8 26.8 6 3.9 14 0.6 14.1-6.3 0.3-24 0.3-47.9 0.3-71.8 0-5.4-0.4-10.9-0.6-18.7z"/>
	<g id="Layer 1">
	</g>
</svg>