<svg version="1.2" xmlns="http://www.w3.org/2000/svg" viewBox="0 0 1080 1920" width="1080" height="1920">
	<title>New Project</title>
	<style>
		.s0 { fill: #010101 } 
	</style>
	<path id="&lt;Path&gt;" class="s0" d="m507 571.3c-4.2 0-7.7-0.2-11.1 0.1-4.7 0.3-9.4 1.3-14.1 1.5-16.5 0.8-33 1-49.4 2.1-7.2 0.5-14.2 3-21.3 4.2-7.8 1.3-15.6 2.1-23.5 3.2-4 0.6-8.1 1.2-12.1 2-14.6 2.8-29.6 1.5-44.2 5.1-10 2.5-20.8 2.1-31.2 2.5-6.1 0.2-12 0.4-17.8 2.6-3.6 1.4-7.2 2.6-10.4-1.2-0.7-0.8-2.2-1.2-3.4-1.3-11.7-0.8-17.4-8.7-22.3-17.9-4.2-7.8-1.8-15.2 2.2-21.5 4.6-7.3 10.8-12.8 20.9-12.8 16.5 0 33-0.8 49.5-1.8 8.1-0.5 16.2-2.2 24.3-3.3 6.9-0.8 13.9-1.4 20.8-2.2 15-1.8 30-3.9 45-5.5 8.8-1 17.7-1.6 26.5-2.1 15.2-0.9 30.3-1.8 45.2-5.3 5.8-1.4 11.9-1.8 18.3-2.8 1-4 2.1-7.3 0.1-12.1-2.3-5.6-1.7-12.4-2.4-18.6-1.3-10.6-2.8-21.2-4-31.7-0.4-4.3-0.2-8.7-0.2-13.1-0.1-13.6-0.5-27.2-0.1-40.7 0.4-17.4-2.6-33.9-8.7-50.1-2.8-7.4-4.5-15.1-6.4-22.8-1.8-7.1-3.9-13.8-7.6-20.2-5.9-9.9-0.9-27.3 8.8-33.8 2.4-1.5 4.7-3.3 7.4-4.3 11.3-4.7 20.8-2.7 29.5 6 4.3 4.3 7.8 8.4 8.5 15.2 1.4 12.8 4.3 25.5 7 38.1 1.8 8.6 4.7 17 6.3 25.7 2.5 13.3 4.3 26.7 6.4 40.1-2.9 7.9 1.5 15.5 0.8 23.4-0.6 7.9-0.3 15.9 0 23.9 0.2 6.3 1.2 12.5 1.8 18.8 1.3 14.2 2.7 28.3 3.7 42.5 0.6 7.6 0.9 8.6 8.2 8.2 10.4-0.6 20.8-2 31.1-3.1 6.6-0.8 13.2-1.5 19.8-2.4q13.6-1.9 27.1-4 24.4-3.7 48.7-7.6c8-1.4 16.1-2.9 24.2-4.1 12.2-1.9 24.3-3.6 36.5-5.5 8.4-1.3 16.8-3 25.2-4.1 3.3-0.5 7-0.5 10 0.5 4.9 1.7 10.3 0.7 15 4.6 7.4 6.3 11.5 13.1 8.7 23-0.3 1.2-0.2 2.5-0.1 3.8 0.6 7.5-1.3 13.2-9.8 14.8-1.1 0.2-2.2 1.2-3.1 2-4.9 3.8-10.3 5.2-16.6 5.7-11.9 0.9-23.7 3.4-35.6 5.1-10.3 1.5-20.7 2.6-31 4.2-10.6 1.6-21.1 3.5-31.7 5.2-13.7 2.2-27.5 3.9-41.1 6.5-16.2 3.1-32.5 4.4-48.9 5.7-8.8 0.7-17.4 2.7-27 4.3 0 2.6-0.2 5.1 0.1 7.5 1 10.1 2.3 20.1 3.4 30.1q1.2 10.4 2.2 20.7c1.3 14.8 2.5 29.6 4 44.4 1.7 16 3.8 32 5.7 47.9 2.1 18.6 6.4 36.7 10.3 54.9 1.8 8.6 3 17.4 4.8 26 3.2 16.4 6.7 32.8 10 49.2 3.2 15.7 6.3 31.5 9.3 47.3 2.6 14 4.9 27.9 7.2 41.9 1 6.3 1.1 12.6 2.2 18.9 2.6 15.8 5.7 31.6 8.4 47.5q2.7 15.8 5 31.7c2.1 14.4 3.8 28.8 5.9 43.1 2.1 13.8 2.7 27.7 4.1 41.5 1.6 16.6 5.1 33 7.8 49.5 0.5 2.8 1 5.6 1.3 8.4 1.5 11.9 2.8 23.8 4.6 35.7 1.5 10.3 3.3 20.5 5.2 30.7 1.3 7.2 3.2 14.2 4.4 21.3 1.3 7.8 2.2 15.7 3 23.5 1.4 13.8 2.3 27.9 6.7 41.1 5.4 16.3 7.5 33.2 10.5 49.9 3.2 17.4 4.9 35 8 52.4 3.8 21.4 8.2 42.7 12.7 64 5 23.5 10.7 46.8 15.5 70.3 1.6 8 6.4 12.7 12.7 16.8 4.2 2.7 8.1 5.9 12 8.8-1.1 7.4-1.7 14-3.1 20.4-2.4 10.9-8.2 20.5-13.6 30.3-1.2 2.2-1.4 5-2.3 8.3-3.6 2-8 3.1-13.4 0.9-3.3-1.3-7.5-0.3-11.3-0.4-6.2-0.2-10.7-2.8-13.9-8.4-7-12.3-9.8-25.9-12.9-39.3-4.6-19.6-8.2-39.5-12.4-59.2-4.6-21.3-10-42.4-14.1-63.7-2.9-14.6-4-29.4-6.3-44-1.8-11.2-4.3-22.3-6.3-33.4-1.2-7.2-1.8-14.5-3.2-21.5-1.9-9.6-4.3-19.1-6.6-28.7-2.6-11-5.1-22.1-4.9-33.6 0-4.7-1-9.4-1.9-14.1-1.7-9-3.8-17.9-5.4-26.9-2.2-12.4-4-24.8-6.1-37.3-1.3-8.1-2.7-16.1-4-24.2-1.9-11.2-3.7-22.4-5.4-33.6-1.9-13.1-3.9-26.2-5.5-39.3-1.1-8.8-1.2-17.7-2.2-26.5q-2.2-20.2-5.1-40.3c-1.5-11.3-4.9-22.5-4.9-33.7 0-11.3-4.9-21.2-6.1-32.1-1.3-12.5-3.3-24.9-5-37.4-0.6-5-1.2-10-1.9-15-1.6-11.5-3-23.1-5-34.6-1.7-9.6-4.5-18.9-6.4-28.5-2.8-13.9-5-27.9-7.8-41.8-1.1-5.8-3.5-11.4-4.6-17.3-1.9-10.2-3.1-20.6-4.9-30.8-1.5-8-3.7-16-5.3-24-2.1-10.8-4.7-21.6-5.8-32.5-0.8-9.2-2.4-18.1-4.9-27-1.4-5.1-2.2-10.5-2.8-15.8-2.1-16.2-4-32.5-5.7-48.8-1-9.1-1.3-18.3-2.2-27.4-1.7-16-3.6-32-5.4-48-0.4-3.1-0.5-6.3-0.8-10.5z"/>
</svg>